<svg data-v-fde0c5aa="" xmlns="http://www.w3.org/2000/svg" viewBox="0 0 300 300" class="iconLeft"><!----><defs data-v-fde0c5aa=""><!----></defs><rect data-v-fde0c5aa="" fill="transparent" x="0" y="0" width="300px" height="300px" class="logo-background-square"></rect><defs data-v-fde0c5aa=""><!----></defs><g data-v-fde0c5aa="" id="474328d4-316d-43b1-975b-5b5c786b368e" fill="#000000" transform="matrix(3.673143433208217,0,0,3.673143433208217,108.07878864464544,118.20894281492671)"><path d="M4.42 13.75Q3.23 13.75 2.11 13.45Q0.99 13.16 0.29 12.67L0.29 12.67L1.20 10.63Q1.86 11.06 2.73 11.33Q3.60 11.59 4.44 11.59L4.44 11.59Q6.03 11.59 6.03 10.79L6.03 10.79Q6.03 10.37 5.58 10.17Q5.12 9.97 4.12 9.74L4.12 9.74Q3.01 9.51 2.27 9.23Q1.53 8.96 0.99 8.36Q0.46 7.76 0.46 6.73L0.46 6.73Q0.46 5.84 0.95 5.12Q1.44 4.40 2.42 3.98Q3.39 3.56 4.80 3.56L4.80 3.56Q5.77 3.56 6.71 3.77Q7.64 3.99 8.36 4.41L8.36 4.41L7.50 6.47Q6.10 5.71 4.79 5.71L4.79 5.71Q3.96 5.71 3.58 5.96Q3.21 6.20 3.21 6.59L3.21 6.59Q3.21 6.99 3.65 7.18Q4.10 7.38 5.10 7.59L5.10 7.59Q6.22 7.83 6.95 8.10Q7.69 8.37 8.22 8.97Q8.76 9.56 8.76 10.58L8.76 10.58Q8.76 11.47 8.27 12.18Q7.78 12.89 6.80 13.32Q5.82 13.75 4.42 13.75L4.42 13.75ZM17.67 9.77Q17.67 9.80 17.63 10.43L17.63 10.43L12.11 10.43Q12.28 11.02 12.76 11.33Q13.24 11.65 13.97 11.65L13.97 11.65Q14.52 11.65 14.92 11.49Q15.32 11.34 15.72 10.99L15.72 10.99L17.12 12.45Q16.02 13.68 13.89 13.68L13.89 13.68Q12.56 13.68 11.55 13.17Q10.54 12.67 9.99 11.77Q9.44 10.88 9.44 9.74L9.44 9.74Q9.44 8.62 9.97 7.73Q10.51 6.85 11.47 6.34Q12.42 5.84 13.61 5.84L13.61 5.84Q14.74 5.84 15.67 6.31Q16.59 6.78 17.13 7.66Q17.67 8.55 17.67 9.77L17.67 9.77ZM13.62 7.73Q13.01 7.73 12.59 8.08Q12.18 8.43 12.07 9.03L12.07 9.03L15.18 9.03Q15.06 8.43 14.65 8.08Q14.24 7.73 13.62 7.73L13.62 7.73ZM21.43 6.87Q21.84 6.36 22.49 6.10Q23.14 5.84 23.98 5.84L23.98 5.84L23.98 8.23Q23.62 8.19 23.38 8.19L23.38 8.19Q22.53 8.19 22.04 8.65Q21.56 9.11 21.56 10.07L21.56 10.07L21.56 13.55L18.90 13.55L18.90 5.96L21.43 5.96L21.43 6.87ZM28.25 5.84Q30.14 5.84 31.14 6.70Q32.13 7.56 32.13 9.34L32.13 9.34L32.13 13.55L29.65 13.55L29.65 12.57Q29.08 13.68 27.41 13.68L27.41 13.68Q26.53 13.68 25.89 13.37Q25.24 13.06 24.91 12.54Q24.58 12.01 24.58 11.34L24.58 11.34Q24.58 10.26 25.41 9.67Q26.24 9.07 27.96 9.07L27.96 9.07L29.47 9.07Q29.40 7.87 27.86 7.87L27.86 7.87Q27.31 7.87 26.75 8.04Q26.19 8.22 25.80 8.53L25.80 8.53L24.91 6.72Q25.54 6.30 26.44 6.07Q27.34 5.84 28.25 5.84L28.25 5.84ZM28.15 12.00Q28.62 12.00 28.97 11.77Q29.32 11.55 29.47 11.12L29.47 11.12L29.47 10.46L28.32 10.46Q27.16 10.46 27.16 11.23L27.16 11.23Q27.16 11.58 27.43 11.79Q27.69 12.00 28.15 12.00L28.15 12.00ZM37.80 13.68Q36.54 13.68 35.55 13.17Q34.55 12.67 34.00 11.77Q33.45 10.88 33.45 9.74L33.45 9.74Q33.45 8.61 34.00 7.72Q34.55 6.83 35.55 6.33Q36.54 5.84 37.80 5.84L37.80 5.84Q39.09 5.84 40.03 6.39Q40.96 6.94 41.36 7.92L41.36 7.92L39.30 8.97Q38.78 7.95 37.79 7.95L37.79 7.95Q37.07 7.95 36.60 8.43Q36.13 8.90 36.13 9.74L36.13 9.74Q36.13 10.60 36.60 11.08Q37.07 11.56 37.79 11.56L37.79 11.56Q38.78 11.56 39.30 10.54L39.30 10.54L41.36 11.59Q40.96 12.57 40.03 13.13Q39.09 13.68 37.80 13.68L37.80 13.68Z"></path></g><defs data-v-fde0c5aa=""><!----></defs><g data-v-fde0c5aa="" id="abdc62cf-9e43-477c-bfed-97588bdcc433" stroke="none" fill="#4f6688" transform="matrix(1.7545000099716543,0,0,1.7545000099716543,40,121.95607315241881)"><path d="M0 31.984h32v-32H0v32zm2-30h28v28H2v-28z"></path><path d="M6.439 16.831h8.959l-4.48-7.741zM16.602 13.331h8.959L21.082 5.59zM6.439 26.41h8.959l-4.48-7.741zM16.602 22.91h8.959l-4.479-7.741z"></path></g><!----></svg>